<svg id="Icon_Application" xmlns="http://www.w3.org/2000/svg" width="40" height="40" viewBox="0 0 40 40">
  <path id="Path" d="M0,0H40V40H0Z" fill="none"/>
  <path id="Path-2" data-name="Path" d="M31.2,33.6H21.6a2.4,2.4,0,0,1-2.4-2.4V21.6a2.4,2.4,0,0,1,2.4-2.4h9.6a2.4,2.4,0,0,1,2.4,2.4v9.6A2.4,2.4,0,0,1,31.2,33.6ZM12,14.4H2.4A2.4,2.4,0,0,1,0,12V2.4A2.4,2.4,0,0,1,2.4,0H12a2.4,2.4,0,0,1,2.4,2.4V12A2.4,2.4,0,0,1,12,14.4Z" transform="translate(3.2 3.2)" fill="#00b2ae"/>
  <path id="Path-3" data-name="Path" d="M12,33.6H2.4A2.4,2.4,0,0,1,0,31.2V21.6a2.4,2.4,0,0,1,2.4-2.4H12a2.4,2.4,0,0,1,2.4,2.4v9.6A2.4,2.4,0,0,1,12,33.6ZM31.2,14.4H21.6A2.4,2.4,0,0,1,19.2,12V2.4A2.4,2.4,0,0,1,21.6,0h9.6a2.4,2.4,0,0,1,2.4,2.4V12A2.4,2.4,0,0,1,31.2,14.4Z" transform="translate(3.2 3.2)" fill="#00b2ae" opacity="0.3"/>
</svg>
