<svg id="Icon_Like" xmlns="http://www.w3.org/2000/svg" width="40" height="40" viewBox="0 0 40 40">
  <path id="Path" d="M0,0H40V40H0Z" fill="none"/>
  <path id="Path-2" data-name="Path" d="M0,11.416a22.955,22.955,0,0,0,3.942-10.3A.962.962,0,0,1,4.613.329c3.621-1.121,5.68.66,5.646,4.721-.007.788-.043,1.489-.12,2.56-.173,2.393-.159,3.047.109,3.486.258.422,1.094.567,3.072.191.624-.118,1.25-.253,1.943-.414.306-.071,2.511-.609,3.074-.731a9.382,9.382,0,0,1,2.525-.289c1.837.113,2.813,1.3,2.981,3.562a57.652,57.652,0,0,1-1.535,14.963c-.935,3.018-2.565,4.157-6.477,4.226q-3.773.066-11.625,0A9.31,9.31,0,0,1,.577,31.83a4.747,4.747,0,0,0,.472-2.07V14.4A4.754,4.754,0,0,0,0,11.416Z" transform="translate(11.493 4.286)" fill="#00b2ae"/>
  <path id="Path-3" data-name="Path" d="M2.905,0A2.893,2.893,0,0,0,0,2.88V18.24a2.893,2.893,0,0,0,2.905,2.88H4.842a2.893,2.893,0,0,0,2.905-2.88V2.88A2.893,2.893,0,0,0,4.842,0Z" transform="translate(2.857 15.806)" fill="#00b2ae" opacity="0.3"/>
</svg>
