<svg id="Icon_Syntax" xmlns="http://www.w3.org/2000/svg" width="40" height="40" viewBox="0 0 40 40">
  <rect id="Path" width="40" height="40" fill="none"/>
  <path id="Shape" d="M33.153,27.2H0l2.653-7.959.007-.021.007-.021H30.486l.012.033,0,.008L33.153,27.2ZM13.376,22.4a.8.8,0,1,0,0,1.6h6.4a.8.8,0,0,0,0-1.6Zm16.8-4.8H2.976V2.4A2.4,2.4,0,0,1,5.376,0h22.4a2.4,2.4,0,0,1,2.4,2.4V17.6ZM17.324,2.485l-3.333,12.5,1.61.429,3.334-12.5ZM21.78,3.876l-1.347.98L23.409,8.95l-2.976,4.093,1.347.981L25.47,8.95Zm-10.991,0L7.1,8.95l3.69,5.074,1.347-.981L9.16,8.95l2.976-4.093Z" transform="translate(3.424 4.8)" fill="#00b2ae"/>
  <path id="Path-2" data-name="Path" d="M33.44,0a4,4,0,0,1-3.92,3.2H3.92A4,4,0,0,1,0,0Z" transform="translate(3.28 33.6)" fill="#00b2ae" opacity="0.3"/>
</svg>
