<svg xmlns="http://www.w3.org/2000/svg" width="17.033" height="17.029" viewBox="0 0 17.033 17.029">
  <path id="Icon_awesome-instagram" data-name="Icon awesome-instagram" d="M8.513,6.386a4.366,4.366,0,1,0,4.366,4.366A4.359,4.359,0,0,0,8.513,6.386Zm0,7.2a2.839,2.839,0,1,1,2.839-2.839,2.844,2.844,0,0,1-2.839,2.839Zm5.563-7.383a1.018,1.018,0,1,1-1.018-1.018A1.016,1.016,0,0,1,14.076,6.208Zm2.892,1.034a5.04,5.04,0,0,0-1.376-3.568A5.073,5.073,0,0,0,12.024,2.3c-1.406-.08-5.62-.08-7.026,0A5.066,5.066,0,0,0,1.43,3.669,5.056,5.056,0,0,0,.055,7.237c-.08,1.406-.08,5.62,0,7.026A5.04,5.04,0,0,0,1.43,17.832,5.079,5.079,0,0,0,5,19.207c1.406.08,5.62.08,7.026,0a5.04,5.04,0,0,0,3.568-1.376,5.073,5.073,0,0,0,1.376-3.568c.08-1.406.08-5.616,0-7.022Zm-1.816,8.531a2.874,2.874,0,0,1-1.619,1.619c-1.121.445-3.781.342-5.02.342s-3.9.1-5.02-.342a2.874,2.874,0,0,1-1.619-1.619c-.445-1.121-.342-3.781-.342-5.02s-.1-3.9.342-5.02A2.874,2.874,0,0,1,3.493,4.114c1.121-.445,3.781-.342,5.02-.342s3.9-.1,5.02.342a2.874,2.874,0,0,1,1.619,1.619c.445,1.121.342,3.781.342,5.02S15.6,14.655,15.152,15.772Z" transform="translate(0.005 -2.238)" fill="#fff"/>
</svg>
