<svg xmlns="http://www.w3.org/2000/svg" width="17.029" height="17.029" viewBox="0 0 17.029 17.029">
  <path id="Icon_awesome-linkedin" data-name="Icon awesome-linkedin" d="M15.813,2.25H1.213A1.222,1.222,0,0,0,0,3.478V18.052a1.222,1.222,0,0,0,1.213,1.228h14.6a1.225,1.225,0,0,0,1.216-1.228V3.478A1.225,1.225,0,0,0,15.813,2.25ZM5.147,16.847H2.623V8.72H5.151v8.127ZM3.885,7.61A1.463,1.463,0,1,1,5.348,6.146,1.464,1.464,0,0,1,3.885,7.61Zm10.723,9.237H12.084V12.893c0-.943-.019-2.155-1.311-2.155-1.315,0-1.517,1.026-1.517,2.087v4.022H6.732V8.72H9.153V9.83h.034a2.658,2.658,0,0,1,2.391-1.311c2.554,0,3.03,1.684,3.03,3.873Z" transform="translate(0 -2.25)" fill="#fff"/>
</svg>
