<svg xmlns="http://www.w3.org/2000/svg" width="17" height="14" viewBox="0 0 17 14">
  <path id="Twitter" d="M15.26,3.487c.006.152.01.3.01.458A9.926,9.926,0,0,1,5.347,14,9.784,9.784,0,0,1,0,12.413a7.116,7.116,0,0,0,.832.049,6.939,6.939,0,0,0,4.331-1.513A3.5,3.5,0,0,1,1.906,8.494a3.373,3.373,0,0,0,.655.064,3.466,3.466,0,0,0,.919-.124,3.525,3.525,0,0,1-2.8-3.465V4.924a3.449,3.449,0,0,0,1.579.442A3.57,3.57,0,0,1,1.184.647,9.86,9.86,0,0,0,8.372,4.34a3.621,3.621,0,0,1-.09-.806A3.511,3.511,0,0,1,11.77,0a3.46,3.46,0,0,1,2.546,1.117A6.929,6.929,0,0,0,16.53.259,3.534,3.534,0,0,1,15,2.214a6.877,6.877,0,0,0,2-.556,7.145,7.145,0,0,1-1.74,1.829" fill="#fff"/>
</svg>
