<svg xmlns="http://www.w3.org/2000/svg" width="48.96" height="56" viewBox="0 0 48.96 56">
  <path id="icon" d="M828.257,912v-2.4c0-.763-.032-1.517-.07-2.269h-3.268V905H828q-.126-1.181-.318-2.333h-3.874v-2.334h3.416a34.851,34.851,0,0,0-4.145-10.446,18.03,18.03,0,0,1-2.492-11.489c.888-7.97,7.055-14.4,14.664-15.286a16.059,16.059,0,0,1,13.035,4.344,18.122,18.122,0,0,1,3.258,21.909,43.331,43.331,0,0,0-4.389,10.968h3.356v2.334h-3.852q-.209,1.165-.344,2.333H849.4v2.333h-3.277c-.029.591-.061,1.183-.061,1.775V912Zm2.225-2.4v.065h13.352v-.559c0-.592.033-1.183.06-1.775H830.413C830.449,908.085,830.482,908.838,830.482,909.6Zm-.249-4.6h13.844q.124-1.168.32-2.333H829.935Q830.113,903.821,830.233,905Zm5.263-39.57a14.866,14.866,0,0,0-12.7,13.241,15.623,15.623,0,0,0,2.158,9.959,37.434,37.434,0,0,1,4.556,11.7h15.349a45.429,45.429,0,0,1,4.769-12.155,15.708,15.708,0,0,0-2.827-18.984,13.936,13.936,0,0,0-9.629-3.862A14.587,14.587,0,0,0,835.5,865.429Zm18.446,27.749,1.113-2.021,3.854,2.334-1.112,2.021Zm-38.541.31,3.854-2.333,1.112,2.021-3.854,2.333ZM857.19,882.83V880.5h4.451v2.33Zm-44.509,0V880.5h4.45v2.33Zm41.268-12.674,3.855-2.332,1.112,2.021-3.855,2.333Zm-38.544-.314,1.112-2.021,3.854,2.333-1.112,2.021Zm30.8-6.947,2.225-4.042,1.927,1.166-2.225,4.041Zm-22.253-2.875,1.927-1.166,2.226,4.042-1.927,1.165Zm12.1.651V856h2.23v4.67Z" transform="translate(-812.68 -856)" fill="#f3713f"/>
</svg>
