<svg xmlns="http://www.w3.org/2000/svg" width="51.954" height="56" viewBox="0 0 51.954 56">
  <path id="icon" d="M1204.755,912V899.167h9.3v-10.5h5l-5.609-10.163v-.3a20.02,20.02,0,0,0-40.039,0,23.09,23.09,0,0,0,4.247,14.053,30.509,30.509,0,0,1,4.908,10.422,46.491,46.491,0,0,1,.955,9.323h-2.325a43.811,43.811,0,0,0-.891-8.778,28.219,28.219,0,0,0-4.55-9.627,24.984,24.984,0,0,1-4.664-15.505,22.343,22.343,0,0,1,44.68-.192L1223,891h-6.622v10.5h-9.3V912Zm-14.578-17.5-.633-3.81a12.859,12.859,0,0,1-2.694-1.123l-3.134,2.247-4.181-4.2,2.238-3.146a12.972,12.972,0,0,1-1.119-2.7l-3.8-.635V875.2l3.8-.635a12.994,12.994,0,0,1,1.119-2.7l-2.238-3.145,4.181-4.2,3.134,2.248a12.813,12.813,0,0,1,2.694-1.124l.633-3.81h5.911l.633,3.81a12.812,12.812,0,0,1,2.694,1.124l3.134-2.248,4.18,4.2-2.238,3.145a12.987,12.987,0,0,1,1.119,2.7l3.8.635v5.934l-3.8.635a12.965,12.965,0,0,1-1.119,2.7l2.238,3.146-4.18,4.2-3.134-2.247a12.858,12.858,0,0,1-2.694,1.123l-.633,3.81Zm-2.759-7.309a10.546,10.546,0,0,0,3.4,1.418l.766.17.563,3.387h1.973l.562-3.387.767-.17a10.546,10.546,0,0,0,3.4-1.418l.661-.423,2.789,2,1.394-1.4-1.991-2.8.421-.664a10.594,10.594,0,0,0,1.412-3.413l.17-.77,3.375-.565v-1.98l-3.375-.564-.17-.77a10.6,10.6,0,0,0-1.412-3.413l-.421-.664,1.991-2.8-1.394-1.4-2.789,2-.661-.424a10.566,10.566,0,0,0-3.4-1.418l-.767-.17-.562-3.387h-1.973l-.562,3.387-.766.17a10.566,10.566,0,0,0-3.4,1.418l-.661.424-2.789-2-1.394,1.4,1.991,2.8-.421.664a10.6,10.6,0,0,0-1.412,3.413l-.17.77-3.375.564v1.98l3.375.565.17.77a10.594,10.594,0,0,0,1.412,3.413l.421.664-1.991,2.8,1.394,1.4,2.789-2Zm-1.36-9.024a7.075,7.075,0,1,1,7.075,7.1A7.1,7.1,0,0,1,1186.058,878.166Zm2.325,0a4.75,4.75,0,1,0,4.75-4.768A4.764,4.764,0,0,0,1188.383,878.166Z" transform="translate(-1171.047 -856)" fill="#ffad00"/>
</svg>
